
<svg aria-hidden="true" style="position:absolute;width:0;height:0" xmlns="http://www.w3.org/2000/svg" overflow="hidden">
    <defs>
        <symbol id="home" viewBox="0 0 35 32">
            <path fill="var(--color1, #d31342)"
                d="M32.64 15.4a1.539 1.539 0 00-.128-2.223l-.002-.002L17.737.426a1.849 1.849 0 00-1.184-.425c-.466 0-.892.171-1.218.454l.002-.002L.516 13.856a1.53 1.53 0 00-.072 2.222l.373.381c.613.635 1.611.709 2.224.168l1.107-.979v14.328a1.6 1.6 0 001.6 1.589H11.55a1.6 1.6 0 001.6-1.589V19.951h7.371v10.024c-.013.88.624 1.589 1.515 1.589h6.134a1.6 1.6 0 001.6-1.589V15.849l.685.592c.376.325 1.168.064 1.765-.587l.421-.453z" />
        </symbol>
        <symbol id="gray-dots" viewBox="0 0 35 32">
            <path d="M33.053 16c0 8.837-7.163 16-16 16s-16-7.163-16-16 7.163-16 16-16 16 7.163 16 16z" />
        </symbol>
        <symbol id="cicrle" viewBox="0 0 32 32">
            <path d="M32 16c0 8.837-7.163 16-16 16S0 24.837 0 16 7.163 0 16 0s16 7.163 16 16z" />
        </symbol>
    </defs>
</svg>